<?xml version="1.0" standalone="no"?>
<!DOCTYPE svg PUBLIC "-//W3C//DTD SVG 20010904//EN"
 "http://www.w3.org/TR/2001/REC-SVG-20010904/DTD/svg10.dtd">
<svg version="1.0" xmlns="http://www.w3.org/2000/svg"
 width="200.000000pt" height="200.000000pt" viewBox="0 0 200.000000 200.000000"
 preserveAspectRatio="xMidYMid meet">

<g transform="translate(0.000000,200.000000) scale(0.100000,-0.100000)"
fill="#000000" stroke="none">
<path d="M517 1690 c-45 -8 -49 -12 -51 -44 -1 -18 -7 -26 -18 -26 -16 0 -18
-14 -18 -145 l0 -145 25 -6 c46 -11 48 -6 49 137 l1 134 58 3 58 3 -2 50 c-3
48 -3 49 -33 48 -17 -1 -48 -5 -69 -9z"/>
<path d="M402 1503 c1 -160 6 -145 10 35 2 61 0 112 -4 112 -5 0 -7 -66 -6
-147z"/>
<path d="M1048 1534 l-28 -15 0 -365 0 -365 38 3 37 3 2 378 c2 291 0 377 -10
377 -7 -1 -24 -8 -39 -16z"/>
<path d="M992 1450 c0 -19 2 -27 5 -17 2 9 2 25 0 35 -3 9 -5 1 -5 -18z"/>
<path d="M994 1100 c0 -157 2 -221 3 -142 2 78 2 206 0 285 -1 78 -3 14 -3
-143z"/>
</g>
</svg>
